<svg width="202" height="202" viewBox="0 0 202 202" fill="none" xmlns="http://www.w3.org/2000/svg">
<rect x="0.5" y="0.5" width="201" height="201" fill="#A64102" stroke="black" stroke-miterlimit="2.3662" stroke-linejoin="bevel"/>
<ellipse cx="58.0245" cy="48.1795" rx="58.0245" ry="48.1795" transform="matrix(0.999645 0.0266415 -0.0310528 0.999518 51.9922 77.8739)" fill="#5E3301"/>
<mask id="path-3-inside-1_39_8" fill="white">
<path d="M165.832 118.741C167.881 126.931 167.832 135.459 165.689 143.673C163.546 151.888 159.366 159.573 153.466 166.145C147.567 172.717 140.103 178.002 131.644 181.597C123.184 185.193 113.952 187.005 104.649 186.895C95.3458 186.785 86.2176 184.756 77.9586 180.962C69.6997 177.169 62.5277 171.711 56.9884 165.004C51.4491 158.297 47.6885 150.517 45.9927 142.257C44.297 133.997 44.7107 125.474 47.2025 117.337L106.151 131.546L165.832 118.741Z"/>
</mask>
<path d="M165.832 118.741C167.881 126.931 167.832 135.459 165.689 143.673C163.546 151.888 159.366 159.573 153.466 166.145C147.567 172.717 140.103 178.002 131.644 181.597C123.184 185.193 113.952 187.005 104.649 186.895C95.3458 186.785 86.2176 184.756 77.9586 180.962C69.6997 177.169 62.5277 171.711 56.9884 165.004C51.4491 158.297 47.6885 150.517 45.9927 142.257C44.297 133.997 44.7107 125.474 47.2025 117.337L106.151 131.546L165.832 118.741Z" fill="#FB9D9D" stroke="black" stroke-width="2" mask="url(#path-3-inside-1_39_8)"/>
<rect x="106" y="60.2763" width="8" height="30.5643" rx="4" fill="white"/>
<path d="M109.5 38.0477L115.364 40.6631L116.812 46.5398L112.754 51.2526H106.246L102.188 46.5398L103.636 40.6631L109.5 38.0477Z" fill="#FCCD10"/>
</svg>
