<svg width="202" height="202" viewBox="0 0 202 202" fill="none" xmlns="http://www.w3.org/2000/svg">
<rect x="0.5" y="0.5" width="201" height="200.042" fill="#CB0303" stroke="black" stroke-miterlimit="2.3662" stroke-linejoin="bevel"/>
<rect x="0.5" y="0.5" width="201" height="200.042" fill="#7BC11A" stroke="black" stroke-miterlimit="2.3662" stroke-linejoin="bevel"/>
<path d="M60.5 108.488C81.7584 108.488 99 91.3356 99 70.1672C99 48.9989 81.7584 31.8468 60.5 31.8468C39.2416 31.8468 22 48.9989 22 70.1672C22 91.3356 39.2416 108.488 60.5 108.488Z" fill="#FFC1F7" stroke="black" stroke-width="2"/>
<mask id="path-4-outside-1_39_9" maskUnits="userSpaceOnUse" x="63.7589" y="123.608" width="79.2153" height="42.4024" fill="black">
<rect fill="white" x="63.7589" y="123.608" width="79.2153" height="42.4024"/>
<path d="M65.7708 163.297C65.8218 153.4 69.8215 143.927 76.8901 136.964C83.9586 130.001 93.517 126.118 103.463 126.169C113.408 126.22 122.926 130.2 129.922 137.235C136.919 144.27 140.821 153.782 140.77 163.68L137.993 163.666C138.04 154.501 134.427 145.693 127.949 139.179C121.47 132.665 112.657 128.979 103.448 128.932C94.2393 128.885 85.3886 132.481 78.8435 138.928C72.2983 145.376 68.5948 154.147 68.5476 163.312L65.7708 163.297Z"/>
</mask>
<path d="M65.7708 163.297C65.8218 153.4 69.8215 143.927 76.8901 136.964C83.9586 130.001 93.517 126.118 103.463 126.169C113.408 126.22 122.926 130.2 129.922 137.235C136.919 144.27 140.821 153.782 140.77 163.68L137.993 163.666C138.04 154.501 134.427 145.693 127.949 139.179C121.47 132.665 112.657 128.979 103.448 128.932C94.2393 128.885 85.3886 132.481 78.8435 138.928C72.2983 145.376 68.5948 154.147 68.5476 163.312L65.7708 163.297Z" fill="#FFC1F7"/>
<path d="M65.7708 163.297C65.8218 153.4 69.8215 143.927 76.8901 136.964C83.9586 130.001 93.517 126.118 103.463 126.169C113.408 126.22 122.926 130.2 129.922 137.235C136.919 144.27 140.821 153.782 140.77 163.68L137.993 163.666C138.04 154.501 134.427 145.693 127.949 139.179C121.47 132.665 112.657 128.979 103.448 128.932C94.2393 128.885 85.3886 132.481 78.8435 138.928C72.2983 145.376 68.5948 154.147 68.5476 163.312L65.7708 163.297Z" stroke="black" stroke-width="4" mask="url(#path-4-outside-1_39_9)"/>
<path d="M144.5 108.488C165.758 108.488 183 91.3356 183 70.1672C183 48.9989 165.758 31.8468 144.5 31.8468C123.242 31.8468 106 48.9989 106 70.1672C106 91.3356 123.242 108.488 144.5 108.488Z" fill="#FFC1F7" stroke="black" stroke-width="2"/>
</svg>
